<?xml version="1.0" encoding="UTF-8" standalone="no"?>
<!-- Uploaded to: SVG Repo, www.svgrepo.com, Generator: SVG Repo Mixer Tools -->

<svg
   height="200px"
   width="200px"
   version="1.1"
   id="_x32_"
   viewBox="0 0 512 512"
   xml:space="preserve"
   sodipodi:docname="resume_builder_tf.svg"
   inkscape:version="1.3.2 (091e20e, 2023-11-25)"
   xmlns:inkscape="http://www.inkscape.org/namespaces/inkscape"
   xmlns:sodipodi="http://sodipodi.sourceforge.net/DTD/sodipodi-0.dtd"
   xmlns="http://www.w3.org/2000/svg"
   xmlns:svg="http://www.w3.org/2000/svg"><defs
   id="defs3">
	
	
	
</defs><sodipodi:namedview
   id="namedview3"
   pagecolor="#ffffff"
   bordercolor="#000000"
   borderopacity="0.25"
   inkscape:showpageshadow="2"
   inkscape:pageopacity="0.0"
   inkscape:pagecheckerboard="0"
   inkscape:deskcolor="#d1d1d1"
   inkscape:zoom="0.295"
   inkscape:cx="723.72881"
   inkscape:cy="400"
   inkscape:window-width="1312"
   inkscape:window-height="449"
   inkscape:window-x="110"
   inkscape:window-y="100"
   inkscape:window-maximized="0"
   inkscape:current-layer="_x32_" />
<style
   type="text/css"
   id="style1">
	.st0{fill:#000000;}
</style>
<g
   id="g3"><path
     class="st0"
     d="m 256,161.428 c 27.43,0 49.658,-22.24 49.658,-49.666 V 97.675 c 0,-27.426 -22.228,-49.659 -49.658,-49.659 -27.43,0 -49.658,22.233 -49.658,49.659 v 14.087 c 0,27.426 22.228,49.666 49.658,49.666 z"
     id="path2"
     style="fill:#7b42bc;fill-opacity:1" /><path
     class="st0"
     d="M 378.4,0 H 133.582 C 86.234,0 47.7,38.542 47.7,85.899 v 340.22 C 47.7,473.476 86.234,512 133.582,512 h 205.695 13.175 l 9.318,-9.301 93.229,-93.229 9.301,-9.31 V 386.986 85.899 C 464.3,38.542 425.766,0 378.4,0 Z m 54.097,386.985 H 384.35 c -24.882,0 -45.074,20.183 -45.074,45.073 v 48.139 H 133.582 c -29.866,0 -54.078,-24.221 -54.078,-54.078 V 85.899 c 0,-29.874 24.212,-54.096 54.078,-54.096 H 378.4 c 29.876,0 54.096,24.222 54.096,54.096 v 301.086 z"
     id="path3"
     style="fill:#7b42bc;fill-opacity:1" /></g>
<g
   id="g4"
   transform="translate(6.2128517,28.16)"><polygon
     class="cls-2"
     points="70.72,77.58 51.62,66.55 51.62,44.49 70.72,55.52 "
     id="polygon9"
     style="fill:#7b42bc;fill-rule:evenodd"
     transform="matrix(4.5207447,0,0,4.5207447,-26.746805,-42.068751)" /><polygon
     class="cls-2"
     points="91.92,66.55 91.92,44.49 72.81,55.52 72.81,77.58 "
     id="polygon10"
     style="fill:#7b42bc;fill-rule:evenodd"
     transform="matrix(4.5207447,0,0,4.5207447,-26.746805,-42.068751)" /><polygon
     class="cls-2"
     points="49.52,65.27 49.52,43.21 30.42,32.18 30.42,54.24 "
     id="polygon11"
     style="fill:#7b42bc;fill-rule:evenodd"
     transform="matrix(4.5207447,0,0,4.5207447,-26.746805,-42.068751)" /><polygon
     class="cls-2"
     points="70.72,80.14 70.72,80 51.62,68.97 51.62,91.03 70.72,102.06 "
     id="polygon12"
     style="fill:#7b42bc;fill-rule:evenodd"
     transform="matrix(4.5207447,0,0,4.5207447,-26.746805,-42.068751)" /></g></svg>
